PathFileType	4	(X/Y/Z)	1H_nor_med_right.trc
DataRate	CameraRate	NumFrames	NumMarkers	Units	OrigDataRate	OrigDataStartFrame	OrigNumFrames
250.00	250.00	15	18	mm	250.00	5505	11009
Frame#	Time	c7	r_should	l_should	clavicle	r_upa	r_elb_l	r_elb_m	r_low	r_wri_l	r_wri_m	r_met	l_upa	l_elb_l	l_elb_m	l_low	l_wri_l	l_wri_m	l_met
	X1	Y1	Z1	X2	Y2	Z2	X3	Y3	Z3	X4	Y4	Z4	X5	Y5	Z5	X6	Y6	Z6	X7	Y7	Z7	X8	Y8	Z8	X9	Y9	Z9	X10	Y10	Z10	X11	Y11	Z11	X12	Y12	Z12	X13	Y13	Z13	X14	Y14	Z14	X15	Y15	Z15	X16	Y16	Z16	X17	Y17	Z17	X18	Y18	Z18
5505	22.01600	1224.58301	1427.38367	135.77625	1268.11414	1375.11108	285.07526	1234.73706	1362.58984	-39.15428	1332.55969	1286.40942	119.24739	1306.20618	1174.79504	362.18341	1313.94568	1100.20215	383.73697	1239.19141	1057.14978	355.09836	1373.01892	1015.28168	320.57040	1423.65601	948.68616	240.28586	1388.03052	895.08478	281.94183	nan	nan	nan	1223.30493	1152.01965	-101.31944	1228.05920	1044.55847	-121.05484	1182.90588	1031.95764	-29.97503	1234.57666	921.42706	-117.24141	1253.78748	803.08862	-92.55025	1176.40784	799.28076	-102.28136	1240.13623	726.22534	-137.70863
5506	22.02000	1224.64868	1427.37537	135.80737	1268.30164	1375.05103	285.10147	1234.72766	1362.60132	-39.14640	1332.61011	1286.39600	119.20657	1306.33545	1174.62939	362.06085	1314.13293	1099.81726	383.53787	1239.33484	1056.87244	354.82956	1373.06384	1014.26508	320.71918	1423.68176	947.03912	240.79767	1387.68518	893.78900	282.72083	nan	nan	nan	1223.23523	1152.03589	-101.31473	1227.97546	1044.56787	-121.04466	1182.85071	1031.97974	-29.96541	1234.41150	921.47839	-117.14089	1253.65332	803.09869	-92.57121	1176.25635	799.30878	-102.28685	1239.96570	726.23505	-137.72136
5507	22.02400	1224.71350	1427.36682	135.84088	1268.49426	1374.98926	285.12775	1234.53076	1362.74915	-39.10512	1332.65735	1286.38672	119.16904	1306.46814	1174.44897	361.92874	1314.33313	1099.43335	383.33105	1239.48328	1056.60413	354.56979	1373.10669	1013.25861	320.87241	1423.70264	945.42133	241.30316	1387.34033	892.48145	283.49725	nan	nan	nan	1223.17065	1152.05237	-101.31250	1227.89185	1044.58765	-121.03307	1182.81091	1032.00842	-29.95441	1234.09607	921.64734	-116.72595	1253.52234	803.11218	-92.58028	1176.11389	799.33374	-102.28540	1239.79492	726.24554	-137.72754
5508	22.02800	1224.78223	1427.36023	135.87123	1268.68787	1374.93176	285.16214	1234.29138	1362.93005	-39.04861	1332.69824	1286.37646	119.12521	1306.60022	1174.26111	361.79257	1314.52869	1099.06433	383.11984	1239.60486	1056.35327	354.32904	1373.15466	1012.27759	321.02460	1423.70862	943.80164	241.83635	1386.95776	891.19958	284.25153	nan	nan	nan	1223.10925	1152.07068	-101.31335	1227.80847	1044.61243	-121.03338	1182.76807	1032.03918	-29.93916	1233.93420	921.70184	-116.63110	1253.39600	803.11737	-92.58290	1175.98413	799.36151	-102.27683	1239.62378	726.25818	-137.73511
5509	22.03200	1224.84985	1427.35193	135.90193	1268.88184	1374.87427	285.20435	1234.39929	1362.86255	-39.05839	1332.74426	1286.36792	119.08173	1306.73254	1174.08545	361.66122	1314.72034	1098.70410	382.91544	1239.71643	1056.10413	354.09784	1373.18945	1011.27277	321.17780	1423.73413	942.19043	242.40370	1386.57336	889.92920	285.05466	nan	nan	nan	1223.05078	1152.09180	-101.31013	1227.73584	1044.62390	-121.03431	1182.72571	1032.06738	-29.92740	1233.90601	921.66663	-116.81551	1253.27087	803.11505	-92.58360	1175.86023	799.38324	-102.25813	1239.44824	726.27228	-137.74501
5510	22.03600	1224.91504	1427.34802	135.93776	1269.07507	1374.81824	285.24521	1234.05762	1363.11670	-38.98730	1332.78967	1286.36243	119.04008	1306.86560	1173.90808	361.52643	1314.91370	1098.33655	382.72601	1239.81299	1055.85559	353.87231	1373.20129	1010.28192	321.34885	1423.78162	940.60504	242.99847	1386.20288	888.63721	285.88318	nan	nan	nan	1222.99146	1152.11206	-101.29939	1227.66309	1044.63550	-121.02318	1182.67712	1032.09192	-29.91641	1233.91455	921.60883	-117.05769	1253.13977	803.12427	-92.60078	1175.73328	799.40186	-102.23675	1239.27686	726.28455	-137.75117
5511	22.04000	1224.98254	1427.34338	135.97173	1269.27185	1374.76038	285.28784	1233.96399	1363.19739	-38.96165	1332.83582	1286.35889	118.98917	1307.00159	1173.72791	361.38846	1315.10156	1097.96021	382.54297	1239.91248	1055.60620	353.64017	1373.21448	1009.32025	321.51907	1423.36523	938.85718	243.65329	1385.80530	887.34534	286.64322	nan	nan	nan	1222.93921	1152.12524	-101.28928	1227.59314	1044.64563	-121.02251	1182.63477	1032.12183	-29.89201	1233.65955	921.73260	-116.72844	1253.01172	803.13062	-92.61768	1175.59668	799.42584	-102.22945	1239.11597	726.29297	-137.76091
5512	22.04400	1225.05017	1427.33643	136.00150	1269.47327	1374.69934	285.32379	1233.93201	1363.23474	-38.94183	1332.88220	1286.35693	118.94437	1307.13721	1173.54626	361.24307	1315.28442	1097.58447	382.35696	1240.02258	1055.34827	353.40140	1373.24377	1008.34869	321.68808	1422.35303	936.85675	244.46596	1385.38025	886.05255	287.37051	nan	nan	nan	1222.88806	1152.14954	-101.28750	1227.53284	1044.65625	-121.02209	1182.59497	1032.15210	-29.87511	1233.52173	921.78394	-116.64823	1252.88391	803.13348	-92.62467	1175.46289	799.44812	-102.21930	1239.14551	726.01117	-137.45039
5513	22.04800	1225.11902	1427.32764	136.03661	1269.66357	1374.63611	285.35995	1234.09839	1363.12610	-38.96376	1332.92529	1286.34546	118.90675	1307.27246	1173.37122	361.09479	1315.47253	1097.21423	382.16000	1240.13586	1055.07703	353.15103	1373.25146	1007.40875	321.86270	1422.18567	935.32867	245.21129	1384.99329	884.80151	288.19519	nan	nan	nan	1222.83862	1152.16785	-101.27978	1227.46960	1044.67078	-121.00850	1182.57166	1032.16504	-29.85887	1233.51355	921.73816	-116.82415	1252.75574	803.14771	-92.62905	1175.33252	799.46082	-102.19231	1239.22119	725.65198	-137.06038
5514	22.05200	1225.18359	1427.32043	136.07335	1269.84900	1374.57690	285.40030	1234.49512	1362.85120	-39.01696	1332.97180	1286.33838	118.87263	1307.41162	1173.20300	360.95160	1315.67334	1096.84973	381.97150	1240.22681	1054.81128	352.91226	1373.23767	1006.47308	322.03659	1422.23071	933.90582	245.93953	1384.60730	883.54016	289.01553	nan	nan	nan	1222.79285	1152.18115	-101.27203	1227.41199	1044.68347	-120.99804	1182.55457	1032.17969	-29.84109	1233.63330	921.59924	-117.25366	1252.63245	803.15338	-92.63320	1175.20605	799.48602	-102.16969	1238.74426	726.13043	-137.59727
5515	22.05600	1225.24609	1427.31274	136.10707	1270.35571	1374.24463	285.62701	1234.59619	1362.78943	-39.01613	1333.02100	1286.33020	118.84850	1307.54089	1173.03198	360.80658	1315.86914	1096.49536	381.79703	1240.30823	1054.55286	352.68362	1373.23047	1005.51581	322.21808	1421.80261	931.99994	246.42908	1384.20410	882.30017	289.82202	nan	nan	nan	1222.74878	1152.19165	-101.25932	1227.36121	1044.69299	-120.98348	1182.54089	1032.20300	-29.81815	1233.50977	921.63623	-117.15222	1252.50854	803.15820	-92.64228	1175.07874	799.51160	-102.14185	1238.50269	726.25159	-137.72832
5516	22.06000	1225.30774	1427.30701	136.14441	1271.27612	1373.56787	286.09030	1234.62024	1362.78442	-39.00138	1333.07166	1286.31970	118.82563	1307.67358	1172.85608	360.65948	1316.06055	1096.13770	381.62860	1240.39478	1054.29541	352.45331	1373.23999	1004.58691	322.41458	1421.59631	930.33850	247.00636	1383.80908	881.07867	290.64667	nan	nan	nan	1222.71606	1152.20935	-101.24162	1227.31274	1044.70203	-120.96750	1182.53406	1032.22034	-29.78679	1233.32666	921.71277	-116.92049	1252.38708	803.16229	-92.65172	1174.94360	799.54388	-102.12454	1238.32092	726.28296	-137.76387
5517	22.06400	1225.36902	1427.30457	136.18320	1271.64453	1373.34985	286.24130	1234.62720	1362.79126	-38.98357	1333.11755	1286.30725	118.79468	1307.81458	1172.67163	360.50134	1316.23584	1095.77332	381.45248	1240.48474	1054.03723	352.21481	1373.24255	1003.68152	322.59735	1421.48718	928.74854	247.67644	1383.40540	879.85962	291.49387	1480.62598	877.92645	251.85561	1222.68896	1152.22192	-101.21871	1227.27087	1044.71472	-120.94820	1182.51050	1032.23779	-29.75906	1233.31042	921.67645	-117.05808	1252.26880	803.17047	-92.65681	1174.80615	799.57819	-102.09969	1238.15063	726.29285	-137.77551
5518	22.06800	1225.43323	1427.30273	136.21318	1271.86902	1373.24219	286.30862	1234.63501	1362.79871	-38.96597	1333.16821	1286.29919	118.77211	1307.94873	1172.49109	360.35138	1316.41504	1095.39050	381.25092	1240.89844	1053.55078	351.86356	1373.22681	1002.75806	322.76834	1421.37866	927.18048	248.34773	1383.00366	878.65991	292.30124	1480.32239	876.17316	252.94592	1222.66504	1152.23596	-101.19764	1227.22620	1044.72913	-120.92555	1182.49316	1032.25513	-29.73781	1233.04993	921.80890	-116.68744	1252.14844	803.16125	-92.65500	1174.67432	799.61035	-102.07987	1237.98254	726.30365	-137.78355
5519	22.07200	1225.50220	1427.30127	136.23962	1272.05591	1373.16077	286.35236	1234.64014	1362.80981	-38.94383	1333.21692	1286.28894	118.75613	1308.07373	1172.29858	360.20132	1316.59265	1095.01453	381.04916	1241.39661	1053.01257	351.47238	1373.20703	1001.83521	322.94992	1421.17896	925.52802	249.02089	1382.56860	877.47479	293.09531	1479.99084	874.42651	254.03123	1222.64014	1152.25488	-101.17841	1227.17810	1044.74487	-120.90678	1182.47632	1032.27771	-29.71348	1232.92383	921.84277	-116.57690	1252.02869	803.14612	-92.65252	1174.55200	799.63568	-102.06097	1237.81824	726.30682	-137.77791
